<svg id="Layer_1" data-name="Layer 1" xmlns="http://www.w3.org/2000/svg" viewBox="0 0 449.58 148.85"><defs><style>.cls-1{fill:#2f2e79;}</style></defs><path class="cls-1" d="M226.82,78.59h-4.69v3.74l28.27.12V78.9h-3.46l13.31-49.2h4.29V27l-28.22-.12,0,2.67,3.34.19Z" transform="translate(-11.12 -5.07)"/><path class="cls-1" d="M215.92,82.27l4.8-19.89-32.2,16.21,12.2-49.45,24,18.58,5.87-21-30.09-.18-17.95,8.42L174.8,65.11l12,17Z" transform="translate(-11.12 -5.07)"/><path class="cls-1" d="M257.92,78.85l-4.63-.07-.06,3.74,28.27.18V79.09H278l13.37-49.2,4.22.06V27.21l-28.2-.2v2.76l3.27.12Z" transform="translate(-11.12 -5.07)"/><path class="cls-1" d="M171.34,104.1H299.08a10.89,10.89,0,0,0,7.89-3.48,12.31,12.31,0,0,0,3.31-8.37V17A12.34,12.34,0,0,0,307,8.57a10.92,10.92,0,0,0-7.91-3.5H171.34a10.9,10.9,0,0,0-7.88,3.51A12.29,12.29,0,0,0,160.2,17V92.25a12.26,12.26,0,0,0,3.28,8.36A10.83,10.83,0,0,0,171.34,104.1Zm-7.85-88c.18-.87.35-1.56.59-2.37a10.4,10.4,0,0,1,1.23-2.06A10.46,10.46,0,0,1,167,10.06,8.21,8.21,0,0,1,169,9a10.83,10.83,0,0,1,2.47-.43l128.43.06a9.76,9.76,0,0,1,2.23.63,12.6,12.6,0,0,1,1.93,1.23,11.54,11.54,0,0,1,1.53,1.81,11,11,0,0,1,1,2.18,9.27,9.27,0,0,1,.36,2.57v76a11.22,11.22,0,0,1-.6,2.43,14.33,14.33,0,0,1-1.16,2.06,13.69,13.69,0,0,1-1.7,1.62,13.83,13.83,0,0,1-2.06,1.06,10.82,10.82,0,0,1-2.4.38l-128.49-.06a9.62,9.62,0,0,1-2.23-.63,13.58,13.58,0,0,1-1.94-1.24,10.5,10.5,0,0,1-1.52-1.8,12.42,12.42,0,0,1-1-2.19,9.56,9.56,0,0,1-.35-2.55v-76Z" transform="translate(-11.12 -5.07)"/><path class="cls-1" d="M23.24,143.06a4,4,0,0,1-2.83,1.11,4.35,4.35,0,0,1-2-.43,4.48,4.48,0,0,1-1.62-1.32,9.54,9.54,0,0,1-1.39-5.87,8.84,8.84,0,0,1,1.41-5.61,4.61,4.61,0,0,1,1.66-1.32,4.43,4.43,0,0,1,2-.42,4.18,4.18,0,0,1,2.79,1,4.61,4.61,0,0,1,1.51,2.67l4.08-1a8.76,8.76,0,0,0-2.09-4,8.2,8.2,0,0,0-6.09-2.36,8.75,8.75,0,0,0-3.77.7,9.12,9.12,0,0,0-3.16,2.3,12.41,12.41,0,0,0-2.63,8.43A11.82,11.82,0,0,0,13.76,145a8.74,8.74,0,0,0,3,2.25,8.31,8.31,0,0,0,3.64.71,8.28,8.28,0,0,0,5.43-1.73,9.7,9.7,0,0,0,3.06-5.28l-4-1.35A6.6,6.6,0,0,1,23.24,143.06Z" transform="translate(-11.12 -5.07)"/><path class="cls-1" d="M39.73,131.46a7.66,7.66,0,0,0-3.93,1,6.78,6.78,0,0,0-2.73,3,8.81,8.81,0,0,0-1,4,9.94,9.94,0,0,0,1,4.6,6.45,6.45,0,0,0,2.81,2.87,8.12,8.12,0,0,0,3.87,1,6.9,6.9,0,0,0,3-.57,7.07,7.07,0,0,0,2.49-1.79,9.1,9.1,0,0,0,0-11.77A7.13,7.13,0,0,0,42.71,132,7,7,0,0,0,39.73,131.46Zm2.58,11.8a3.39,3.39,0,0,1-1.15.92,3.21,3.21,0,0,1-1.42.33,3.14,3.14,0,0,1-1.41-.33,3.34,3.34,0,0,1-1.16-.92,6.68,6.68,0,0,1,0-7.16,3.34,3.34,0,0,1,1.16-.92,3.14,3.14,0,0,1,1.41-.33,3.21,3.21,0,0,1,1.42.33,3.39,3.39,0,0,1,1.15.92,6.63,6.63,0,0,1,0,7.16Z" transform="translate(-11.12 -5.07)"/><path class="cls-1" d="M63.47,133.21a4,4,0,0,0-1.62-1.27,5.58,5.58,0,0,0-2.37-.5,5.76,5.76,0,0,0-2.75.7,6.08,6.08,0,0,0-2.13,2V131.8H51v15.73h3.92V140.4a14.69,14.69,0,0,1,.3-3.62,3,3,0,0,1,1.1-1.57,3.05,3.05,0,0,1,1.83-.59,2.27,2.27,0,0,1,1.36.41,2.39,2.39,0,0,1,.82,1.17,13.45,13.45,0,0,1,.25,3.29v8h3.91v-9.77a14.55,14.55,0,0,0-.21-2.8A4.78,4.78,0,0,0,63.47,133.21Z" transform="translate(-11.12 -5.07)"/><path class="cls-1" d="M71.3,126.07a3.3,3.3,0,0,0-1.47,1.59,8.48,8.48,0,0,0-.4,3v1.19H67.26v3.27h2.17v12.46h3.92V135.08h2.93v-3.27H73.35V130.7a2.55,2.55,0,0,1,.37-1.62,1.43,1.43,0,0,1,.56-.35,1.64,1.64,0,0,1,.66-.08,7.21,7.21,0,0,1,1.79.24l.54-2.91a10.48,10.48,0,0,0-3.28-.53A5.17,5.17,0,0,0,71.3,126.07Z" transform="translate(-11.12 -5.07)"/><path class="cls-1" d="M89.91,133.78A6.56,6.56,0,0,0,87.54,132a6.24,6.24,0,0,0-2.85-.53A6,6,0,0,0,82,132a6.28,6.28,0,0,0-2.2,1.67,9,9,0,0,0-1.92,6.12,9.45,9.45,0,0,0,1.46,5.43,6.6,6.6,0,0,0,2.54,2.1,6.34,6.34,0,0,0,3.17.59,6.31,6.31,0,0,0,6.45-4.67l-3.9-.7a3.34,3.34,0,0,1-.95,1.72,2.34,2.34,0,0,1-1.55.53,2.93,2.93,0,0,1-1.24-.25,3.09,3.09,0,0,1-1-.78,4.36,4.36,0,0,1-.94-2.88h9.81A10.8,10.8,0,0,0,89.91,133.78ZM82,138.33a4,4,0,0,1,.82-2.7,2.79,2.79,0,0,1,2-1,2.73,2.73,0,0,1,2,.77l.17.18a4.13,4.13,0,0,1,.88,2.75Z" transform="translate(-11.12 -5.07)"/><path class="cls-1" d="M105.13,133.65a5.59,5.59,0,0,0-1.91-1.62,5.25,5.25,0,0,0-2.38-.57,5.36,5.36,0,0,0-2.46.51,5.91,5.91,0,0,0-2,1.57,9.16,9.16,0,0,0-1.76,6.08,9.31,9.31,0,0,0,1.81,6.1,5.73,5.73,0,0,0,2,1.61,5.22,5.22,0,0,0,2.42.57,5.09,5.09,0,0,0,2.48-.66,6,6,0,0,0,2.14-2v2.31h3.64V125.82h-3.92Zm-.94,9.74a3,3,0,0,1-1,.9,2.87,2.87,0,0,1-2.83-.11,3,3,0,0,1-1.1-1.2,7.57,7.57,0,0,1-.66-3.64,5.64,5.64,0,0,1,.94-3.52,3.12,3.12,0,0,1,1-.87,2.83,2.83,0,0,1,1.3-.31,3,3,0,0,1,1.3.31,3.14,3.14,0,0,1,1,.88,6.48,6.48,0,0,1,.92,3.9A5.88,5.88,0,0,1,104.19,143.39Z" transform="translate(-11.12 -5.07)"/><path class="cls-1" d="M124.32,133.78A6.53,6.53,0,0,0,122,132a6.28,6.28,0,0,0-2.86-.53,6,6,0,0,0-2.66.54,6.47,6.47,0,0,0-2.2,1.67,9,9,0,0,0-1.92,6.12,9.45,9.45,0,0,0,1.46,5.43,6.75,6.75,0,0,0,2.54,2.1,6.36,6.36,0,0,0,3.18.59,6.31,6.31,0,0,0,6.44-4.67l-3.9-.7a3.34,3.34,0,0,1-1,1.72,2.3,2.3,0,0,1-1.54.54,2.79,2.79,0,0,1-1.24-.26,2.87,2.87,0,0,1-1-.78,4.4,4.4,0,0,1-1-2.87h9.81A10.84,10.84,0,0,0,124.32,133.78Zm-7.92,4.55a4.11,4.11,0,0,1,.82-2.7,2.81,2.81,0,0,1,2-1,2.75,2.75,0,0,1,2,.77l.16.18a4.16,4.16,0,0,1,.88,2.75Z" transform="translate(-11.12 -5.07)"/><path class="cls-1" d="M135,132a6.57,6.57,0,0,0-1.68,2.09v-2.24h-3.64v15.73h3.92v-4.86a25.84,25.84,0,0,1,.33-5.27,3.31,3.31,0,0,1,.89-1.74,2.06,2.06,0,0,1,1.4-.48,3.22,3.22,0,0,1,1.84.68l1.21-3.63a4.75,4.75,0,0,0-2.58-.79A2.92,2.92,0,0,0,135,132Z" transform="translate(-11.12 -5.07)"/><path class="cls-1" d="M153.52,142.37l0-4.86a9.23,9.23,0,0,0-.52-3.72,4.07,4.07,0,0,0-1.81-1.68,8.85,8.85,0,0,0-3.9-.66,7.22,7.22,0,0,0-4.35,1.1,5.9,5.9,0,0,0-2.06,3.38l3.55.68a3.12,3.12,0,0,1,.95-1.54,2.66,2.66,0,0,1,1.64-.44,3.21,3.21,0,0,1,2.1.51,2.25,2.25,0,0,1,.46.79,2.39,2.39,0,0,1,.1.92v.42a19.59,19.59,0,0,1-3.8,1,12.82,12.82,0,0,0-3.12,1,3.9,3.9,0,0,0-1.67,1.6,5,5,0,0,0-.28,4.2,4.39,4.39,0,0,0,1,1.52,4.86,4.86,0,0,0,3.6,1.31,5.87,5.87,0,0,0,2.44-.51,7.31,7.31,0,0,0,2.15-1.56c0,.08.07.24.13.49a12.34,12.34,0,0,0,.38,1.22h3.87a9.51,9.51,0,0,1-.7-2.11A16.29,16.29,0,0,1,153.52,142.37Zm-3.81-1.55a9.82,9.82,0,0,1-.15,2,2.59,2.59,0,0,1-.94,1.38,3.23,3.23,0,0,1-2,.75,2,2,0,0,1-.84-.15,2.21,2.21,0,0,1-.73-.48,2.29,2.29,0,0,1-.45-.69,2.11,2.11,0,0,1-.15-.83,1.89,1.89,0,0,1,.2-.84,1.73,1.73,0,0,1,.57-.63,6.79,6.79,0,0,1,2.13-.72,22.91,22.91,0,0,0,2.38-.64Z" transform="translate(-11.12 -5.07)"/><path class="cls-1" d="M163.17,144.45a1.07,1.07,0,0,1-.66-.22.9.9,0,0,1-.35-.52,16.93,16.93,0,0,1-.08-2.25v-6.34h2.68v-3.33h-2.68v-5.55l-3.93,2.43v3.13h-1.8v3.32h1.8V142a22.18,22.18,0,0,0,.13,2.94,3.86,3.86,0,0,0,.55,1.62,2.86,2.86,0,0,0,1.25,1,4.61,4.61,0,0,0,1.9.38,7.51,7.51,0,0,0,3.1-.63l-.33-3.23A4.56,4.56,0,0,1,163.17,144.45Z" transform="translate(-11.12 -5.07)"/><path class="cls-1" d="M172,125.82h-3.91v3.85H172Z" transform="translate(-11.12 -5.07)"/><path class="cls-1" d="M172,131.81h-3.91v15.74H172Z" transform="translate(-11.12 -5.07)"/><path class="cls-1" d="M183.24,131.46a7.69,7.69,0,0,0-3.93,1,6.84,6.84,0,0,0-2.73,3,8.93,8.93,0,0,0-1,4,10.06,10.06,0,0,0,1,4.6,6.5,6.5,0,0,0,2.81,2.87,8,8,0,0,0,3.88,1,6.86,6.86,0,0,0,3-.57,7.2,7.2,0,0,0,2.5-1.79,9.13,9.13,0,0,0,0-11.77,7.39,7.39,0,0,0-2.53-1.77A6.93,6.93,0,0,0,183.24,131.46Zm2.59,11.8a3.43,3.43,0,0,1-1.16.92,3.17,3.17,0,0,1-1.41.33,3.21,3.21,0,0,1-1.42-.33,3.39,3.39,0,0,1-1.15-.92,6.63,6.63,0,0,1,0-7.16,3.39,3.39,0,0,1,1.15-.92,3.21,3.21,0,0,1,1.42-.33,3.17,3.17,0,0,1,1.41.33,3.43,3.43,0,0,1,1.16.92,5.39,5.39,0,0,1,1,3.55A5.54,5.54,0,0,1,185.83,143.26Z" transform="translate(-11.12 -5.07)"/><path class="cls-1" d="M207,133.21a4.08,4.08,0,0,0-1.62-1.27,5.55,5.55,0,0,0-2.37-.5,5.75,5.75,0,0,0-2.74.7,6.11,6.11,0,0,0-2.14,2V131.8H194.5v15.73h3.91V140.4a14.69,14.69,0,0,1,.3-3.62,3.07,3.07,0,0,1,1.11-1.57,3,3,0,0,1,1.82-.59A2.29,2.29,0,0,1,203,135a2.33,2.33,0,0,1,.82,1.17,13.45,13.45,0,0,1,.25,3.29v8H208v-9.77a14.55,14.55,0,0,0-.21-2.8A5,5,0,0,0,207,133.21Z" transform="translate(-11.12 -5.07)"/><path class="cls-1" d="M225.5,131.46a7.73,7.73,0,0,0-3.94,1,6.84,6.84,0,0,0-2.73,3,8.94,8.94,0,0,0-1,4,10.2,10.2,0,0,0,1,4.6,6.5,6.5,0,0,0,2.81,2.87,8.13,8.13,0,0,0,3.88,1,6.89,6.89,0,0,0,3-.57,7.07,7.07,0,0,0,2.49-1.79,9.1,9.1,0,0,0,0-11.77,7.31,7.31,0,0,0-2.51-1.77A7,7,0,0,0,225.5,131.46Zm2.59,11.8a3.25,3.25,0,0,1-1.16.93,3.31,3.31,0,0,1-2.84,0,3.34,3.34,0,0,1-1.16-.93,6.68,6.68,0,0,1,0-7.16,3.43,3.43,0,0,1,1.16-.92,3.21,3.21,0,0,1,1.42-.33,3.14,3.14,0,0,1,1.41.33,3.37,3.37,0,0,1,1.17.92,5.44,5.44,0,0,1,1,3.55A5.53,5.53,0,0,1,228.09,143.26Z" transform="translate(-11.12 -5.07)"/><path class="cls-1" d="M239.08,126.07a3.28,3.28,0,0,0-1.46,1.59,8.25,8.25,0,0,0-.4,3v1.19H235v3.27h2.18v12.46h3.92V135.08h2.92v-3.27h-2.92V130.7a2.55,2.55,0,0,1,.37-1.62,1.43,1.43,0,0,1,.56-.35,1.6,1.6,0,0,1,.65-.08,7.37,7.37,0,0,1,1.81.24l.52-2.91a10.41,10.41,0,0,0-3.27-.53A5.19,5.19,0,0,0,239.08,126.07Z" transform="translate(-11.12 -5.07)"/><path class="cls-1" d="M257.12,125.82H253v21.73h4.12Z" transform="translate(-11.12 -5.07)"/><path class="cls-1" d="M274.07,133.21a4,4,0,0,0-1.63-1.27,5.5,5.5,0,0,0-2.36-.5,5.76,5.76,0,0,0-2.75.7,6,6,0,0,0-2.13,2V131.8h-3.64v15.73h3.91V140.4a14.69,14.69,0,0,1,.3-3.62,3,3,0,0,1,2.94-2.16,2.2,2.2,0,0,1,1.35.41,2.39,2.39,0,0,1,.82,1.17,13.45,13.45,0,0,1,.25,3.29v8H275v-9.77a14.55,14.55,0,0,0-.21-2.8A4.76,4.76,0,0,0,274.07,133.21Z" transform="translate(-11.12 -5.07)"/><path class="cls-1" d="M289.22,133.65A5.59,5.59,0,0,0,287.3,132a5.23,5.23,0,0,0-2.38-.58,5.52,5.52,0,0,0-2.46.51,5.91,5.91,0,0,0-2,1.57,9.16,9.16,0,0,0-1.76,6.08,9.29,9.29,0,0,0,1.81,6.1,5.66,5.66,0,0,0,2,1.62,5.47,5.47,0,0,0,2.41.57,5.39,5.39,0,0,0,2.5-.66,6.23,6.23,0,0,0,2.14-2v2.31h3.63V125.82h-3.91Zm-.94,9.74a2.93,2.93,0,0,1-1,.9,2.73,2.73,0,0,1-1.28.32,2.83,2.83,0,0,1-1.54-.43,3,3,0,0,1-1.1-1.2,7.57,7.57,0,0,1-.66-3.64,5.66,5.66,0,0,1,.94-3.52,3.12,3.12,0,0,1,1.05-.87,3,3,0,0,1,1.3-.31,2.84,2.84,0,0,1,1.3.32,3,3,0,0,1,1,.87,6.5,6.5,0,0,1,.92,3.91A5.94,5.94,0,0,1,288.28,143.39Z" transform="translate(-11.12 -5.07)"/><path class="cls-1" d="M301.47,125.82h-3.91v3.85h3.91Z" transform="translate(-11.12 -5.07)"/><path class="cls-1" d="M301.47,131.81h-3.91v15.74h3.91Z" transform="translate(-11.12 -5.07)"/><path class="cls-1" d="M318,142.37l0-4.86a9.06,9.06,0,0,0-.52-3.72,4,4,0,0,0-1.8-1.68,9,9,0,0,0-3.91-.66,7.19,7.19,0,0,0-4.34,1.1,5.9,5.9,0,0,0-2.06,3.38l3.56.68a3.08,3.08,0,0,1,.94-1.54,2.61,2.61,0,0,1,1.63-.44,3.22,3.22,0,0,1,2.11.51,2.26,2.26,0,0,1,.55,1.71v.42a19.31,19.31,0,0,1-3.79,1,12.82,12.82,0,0,0-3.12,1,4,4,0,0,0-1.69,1.6,4.78,4.78,0,0,0-.59,2.38,4.57,4.57,0,0,0,1.31,3.34,4.86,4.86,0,0,0,3.6,1.31,5.73,5.73,0,0,0,2.44-.52,7.11,7.11,0,0,0,2.15-1.55c.05.16.1.32.14.49.15.54.28.95.37,1.22h3.87a8.87,8.87,0,0,1-.7-2.11A17.24,17.24,0,0,1,318,142.37Zm-3.8-1.55a9.87,9.87,0,0,1-.15,2,2.67,2.67,0,0,1-.93,1.38,3.29,3.29,0,0,1-2,.75,2,2,0,0,1-.83-.15,2.16,2.16,0,0,1-.72-.48,2.14,2.14,0,0,1-.46-.69,2.11,2.11,0,0,1-.15-.83,1.75,1.75,0,0,1,.76-1.47,6.76,6.76,0,0,1,2.14-.72c1.09-.26,1.88-.46,2.38-.64Z" transform="translate(-11.12 -5.07)"/><path class="cls-1" d="M335,133.22a4.08,4.08,0,0,0-1.62-1.27,5.69,5.69,0,0,0-4-.26,6.05,6.05,0,0,0-3.27,2.42V131.8h-3.64v15.74h3.91V140.4a14.11,14.11,0,0,1,.31-3.61,2.91,2.91,0,0,1,1.1-1.57,3,3,0,0,1,1.83-.6A2.26,2.26,0,0,1,331,135a2.28,2.28,0,0,1,.8,1.16,12.59,12.59,0,0,1,.26,3.3v8h3.91v-9.78a13.12,13.12,0,0,0-.21-2.8A4.65,4.65,0,0,0,335,133.22Z" transform="translate(-11.12 -5.07)"/><path class="cls-1" d="M350.74,125.82h-4.12v21.72h4.12Z" transform="translate(-11.12 -5.07)"/><path class="cls-1" d="M367.68,133.21a4.08,4.08,0,0,0-1.62-1.27,5.59,5.59,0,0,0-2.38-.5,5.75,5.75,0,0,0-2.74.7,6.08,6.08,0,0,0-2.13,2V131.8h-3.63v15.73h3.91V140.4a14.69,14.69,0,0,1,.3-3.62,2.92,2.92,0,0,1,1.11-1.57,3,3,0,0,1,1.83-.59,2.18,2.18,0,0,1,2.17,1.58,13,13,0,0,1,.26,3.29v8h3.91v-9.77a14.56,14.56,0,0,0-.22-2.8A4.55,4.55,0,0,0,367.68,133.21Z" transform="translate(-11.12 -5.07)"/><path class="cls-1" d="M382.86,133.65A5.59,5.59,0,0,0,381,132a5.26,5.26,0,0,0-2.39-.57,5.34,5.34,0,0,0-2.45.51,5.91,5.91,0,0,0-2,1.57,9.16,9.16,0,0,0-1.76,6.08,9.31,9.31,0,0,0,1.81,6.1,5.63,5.63,0,0,0,2,1.61,5.23,5.23,0,0,0,4.9-.08,6.05,6.05,0,0,0,2.13-2v2.31h3.64V125.82h-3.91Zm-.93,9.74a2.9,2.9,0,0,1-1,.89,2.66,2.66,0,0,1-1.29.33,2.85,2.85,0,0,1-1.53-.42A3.08,3.08,0,0,1,377,143a7.57,7.57,0,0,1-.66-3.64,5.58,5.58,0,0,1,.94-3.52,3,3,0,0,1,1.05-.87,2.83,2.83,0,0,1,1.3-.31,3,3,0,0,1,1.3.31,3.14,3.14,0,0,1,1,.88,6.48,6.48,0,0,1,.92,3.9A5.94,5.94,0,0,1,381.93,143.39Z" transform="translate(-11.12 -5.07)"/><path class="cls-1" d="M400.65,138.45a16.85,16.85,0,0,1-.3,4.25,3,3,0,0,1-2.88,2,2.22,2.22,0,0,1-1.44-.44,2.07,2.07,0,0,1-.79-1.18,21.18,21.18,0,0,1-.21-4.06v-7.24h-3.92v10a9.18,9.18,0,0,0,.53,3.49,4,4,0,0,0,1.71,2,5.31,5.31,0,0,0,2.68.7,5.69,5.69,0,0,0,2.78-.73,5.88,5.88,0,0,0,2.13-2v2.36h3.62V131.81h-3.9Z" transform="translate(-11.12 -5.07)"/><path class="cls-1" d="M416,137.68a14.1,14.1,0,0,1-3.66-1.18.79.79,0,0,1-.28-.32.92.92,0,0,1-.11-.43,1,1,0,0,1,.44-.84,4.11,4.11,0,0,1,2.22-.46,3.1,3.1,0,0,1,1.89.5,2.39,2.39,0,0,1,.9,1.4l3.7-.72a5.46,5.46,0,0,0-2-3.11,7.83,7.83,0,0,0-4.52-1.06,6.78,6.78,0,0,0-4.71,1.4,4.21,4.21,0,0,0-1.13,1.53,4.4,4.4,0,0,0-.39,1.9,4.26,4.26,0,0,0,.44,2,3.94,3.94,0,0,0,1.31,1.52,20.64,20.64,0,0,0,6,2,2.76,2.76,0,0,1,1.31.54,1.14,1.14,0,0,1,.28.79,1.46,1.46,0,0,1-.12.62,1.33,1.33,0,0,1-.39.49,3.63,3.63,0,0,1-2.28.59,3.28,3.28,0,0,1-2.15-.63,3.08,3.08,0,0,1-1-1.84l-3.93.63a6.1,6.1,0,0,0,2.3,3.55,7.9,7.9,0,0,0,4.79,1.3,7.17,7.17,0,0,0,5-1.56,4.66,4.66,0,0,0,1.25-1.65,5,5,0,0,0,.45-2.06,4.08,4.08,0,0,0-.27-1.7,3.81,3.81,0,0,0-1-1.4A10.25,10.25,0,0,0,416,137.68Z" transform="translate(-11.12 -5.07)"/><path class="cls-1" d="M430.81,144.45a1,1,0,0,1-.66-.21.85.85,0,0,1-.35-.53,16.72,16.72,0,0,1-.08-2.24v-6.35h2.68V131.8h-2.68v-5.56l-3.92,2.43v3.13H424v3.33h1.81V142a20.46,20.46,0,0,0,.12,2.93,4,4,0,0,0,.55,1.62,2.77,2.77,0,0,0,1.25,1,4.69,4.69,0,0,0,1.91.38,7.39,7.39,0,0,0,3.1-.63l-.34-3.23A4.62,4.62,0,0,1,430.81,144.45Z" transform="translate(-11.12 -5.07)"/><path class="cls-1" d="M440.8,132a6.54,6.54,0,0,0-1.67,2.09v-2.24h-3.64v15.73h3.92v-4.86a25.84,25.84,0,0,1,.33-5.27,3.43,3.43,0,0,1,.9-1.74,2,2,0,0,1,1.39-.48,3.2,3.2,0,0,1,1.84.68l1.21-3.63a4.66,4.66,0,0,0-2.57-.79A3,3,0,0,0,440.8,132Z" transform="translate(-11.12 -5.07)"/><path class="cls-1" d="M456.64,131.81,453.18,143l-3.54-11.18h-4.18l5.63,15.78a5.88,5.88,0,0,1-1,2.17,2.46,2.46,0,0,1-.92.68,2.3,2.3,0,0,1-1.1.18,7.77,7.77,0,0,1-1.66-.2l.35,3.26a9.73,9.73,0,0,0,2.21.25,7.59,7.59,0,0,0,2-.25,4.72,4.72,0,0,0,1.49-.7,4.58,4.58,0,0,0,1.06-1.18,11.83,11.83,0,0,0,1-2.1l.94-2.75,5.23-15.14Z" transform="translate(-11.12 -5.07)"/></svg>